<?xml version="1.0" encoding="utf-8"?>
<!-- Generator: Adobe Illustrator 22.1.0, SVG Export Plug-In . SVG Version: 6.00 Build 0)  -->
<svg version="1.1" xmlns="http://www.w3.org/2000/svg" xmlns:xlink="http://www.w3.org/1999/xlink" x="0px" y="0px"
	 viewBox="0 0 1164 550" style="enable-background:new 0 0 1164 550;" xml:space="preserve">
<style type="text/css">
	.st0{fill:#2B354B;}
</style>
<g id="Слой_3">
	<path class="st0" d="M287.3,1h-219l24.2,36.7L60.3,243c-13,0-15,12-15,12l-13,59c0,16,10,18,10,18l-41,218h88l39-222h86
		c46,0,52-34,52-34l47-262C313.3,5,287.3,1,287.3,1z M188.3,245h-45l28-171h48L188.3,245z"/>
	<path class="st0" d="M317.3,1h112l-87,472h65l83.2-446.2L465.3,1h109l-92,518c0,0-9,30-42,30h-173c0,0-19-11-10-53l85.4-469.6
		L317.3,1z"/>
	<path class="st0" d="M791.3,1h-180l-100,548h176c36.5,0,41.4-38.1,41.4-38.1l36.3-214.2c4-20-22.7-36.7-22.7-36.7
		c25-4,35-35.8,35-35.8l34-196.2C815.3,2,791.3,1,791.3,1z M647.3,484h-46l31-184h48.9L647.3,484z M694.8,226h-49.8L670,79h51.9
		L694.8,226z"/>
	<path class="st0" d="M935.8,307.1l-29.8,161.8c0,0-0.8,14.1-21.7,14.1h-17c0,0-16,2-11-28l66-379h56l-11,61h11h58l18-104
		c0,0,1.7-33-32-33h-134c0,0-40,5-43,45l-84,472c0,0,0,31,26,31h160c0,0,21,0,26-33l41-248l150.7-46l-213.4,0.2l-8.1,44.5
		L935.8,307.1z"/>
	<path d="M1008,308.1"/>
</g>
<g id="Слой_4">
</g>
<g id="Слой_2">
</g>
</svg>
